<?xml version="1.0" encoding="UTF-8"?>
<!DOCTYPE svg PUBLIC "-//W3C//DTD SVG 1.1//EN" "http://www.w3.org/Graphics/SVG/1.1/DTD/svg11.dtd">
<!-- Creator: CorelDRAW X6 -->
<svg xmlns="http://www.w3.org/2000/svg" xml:space="preserve" width="6.94444in" height="0.194441in" version="1.1" style="shape-rendering:geometricPrecision; text-rendering:geometricPrecision; image-rendering:optimizeQuality; fill-rule:evenodd; clip-rule:evenodd"
viewBox="0 0 6944 194"
 xmlns:xlink="http://www.w3.org/1999/xlink">
 <defs>
  <style type="text/css">
   <![CDATA[
    .fil0 {fill:#373435;fill-rule:nonzero}
   ]]>
  </style>
 </defs>
 <g id="Layer_x0020_1">
  <metadata id="CorelCorpID_0Corel-Layer"/>
  <path class="fil0" d="M104 -6c26,1 45,10 63,26 2,2 3,6 0,8l-8 8c-2,3 -4,3 -7,0 -14,-13 -34,-21 -53,-21 -44,0 -78,37 -78,80 0,43 34,80 78,80 24,0 38,-10 53,-21 3,-2 5,-2 7,-1l8 8c2,2 2,6 0,8 -19,18 -43,27 -68,27 -56,0 -101,-44 -101,-100 0,-55 43,-99 97,-100l7 0z"/>
  <path class="fil0" d="M350 125c-14,-30 -27,-61 -41,-91l-2 0 -41 91 84 0zm-39 -131l-5 0c-2,0 -3,2 -4,3l-85 187c-2,4 1,7 5,7l11 0c3,0 4,-2 5,-3l20 -46 99 0 21 46c1,1 2,3 5,3l11 0c4,0 6,-4 5,-7l-84 -187c-1,-1 -2,-3 -4,-3z"/>
  <path class="fil0" d="M462 2c0,-3 2,-5 5,-5l11 0c3,0 5,3 5,5l0 171 80 0c3,0 5,3 5,5l0 8c0,3 -2,5 -5,5l-96 0c-3,0 -5,-3 -5,-5l0 -184z"/>
  <path class="fil0" d="M633 2c0,-3 3,-5 5,-5l11 0c3,0 5,3 5,5l0 184c0,3 -3,5 -5,5l-11 0c-3,0 -5,-3 -5,-5l0 -184z"/>
  <path class="fil0" d="M739 2c0,-3 2,-5 5,-5l110 0c3,0 5,3 5,5l0 8c0,3 -2,5 -5,5l-94 0 0 76 80 0c3,0 5,3 5,5l0 8c0,3 -3,5 -5,5l-80 0 0 76c0,3 -3,5 -5,5l-11 0c-3,0 -5,-3 -5,-5l0 -184z"/>
  <path class="fil0" d="M1016 175c44,0 81,-36 81,-80 0,-44 -36,-81 -81,-81 -44,0 -80,37 -80,81 0,44 36,80 80,80zm3 -181l-7 0c-54,2 -97,46 -97,100 0,56 44,100 100,100 56,0 100,-44 100,-100 0,-55 -43,-99 -97,-100z"/>
  <path class="fil0" d="M1252 97c21,0 40,-18 40,-41 0,-21 -19,-39 -40,-39l-54 0 0 80 54 0zm-76 -95c0,-3 2,-5 5,-5l72 0c33,0 61,26 61,59 0,26 -17,47 -41,57l38 71c2,4 0,8 -5,8l-14 0c-3,0 -4,-1 -4,-3l-37 -74 -53 0 0 71c0,3 -3,5 -5,5l-11 0c-3,0 -5,-3 -5,-5l0 -184z"/>
  <path class="fil0" d="M1382 -1c0,-3 2,-5 4,-5l8 0 126 156c0,0 0,0 1,0l0 -148c0,-3 2,-5 5,-5l10 0c3,0 5,3 5,5l0 187c0,3 -2,5 -5,5l0 0 -5 0 -128 -160 0 0 0 151c0,3 -2,5 -5,5l-10 0c-3,0 -5,-3 -5,-5l0 -187z"/>
  <path class="fil0" d="M1620 2c0,-3 3,-5 5,-5l11 0c3,0 5,3 5,5l0 184c0,3 -3,5 -5,5l-11 0c-3,0 -5,-3 -5,-5l0 -184z"/>
  <path class="fil0" d="M1837 125c-14,-30 -27,-61 -41,-91l-2 0 -41 91 84 0zm-39 -131l-5 0c-2,0 -3,2 -4,3l-85 187c-2,4 1,7 5,7l11 0c3,0 4,-2 5,-3l20 -46 99 0 21 46c1,1 2,3 5,3l11 0c4,0 6,-4 5,-7l-84 -187c-1,-1 -2,-3 -4,-3z"/>
  <path class="fil0" d="M2033 162c1,-2 3,-4 4,-5 3,-4 6,-6 10,-3 2,2 22,21 47,21 23,0 37,-14 37,-31 0,-19 -17,-31 -49,-44 -31,-13 -49,-26 -49,-58 0,-18 14,-48 56,-50l6 0c26,1 45,14 45,14 2,1 5,4 2,9 -1,2 -2,4 -3,5 -3,4 -5,5 -10,3 -2,-1 -19,-13 -36,-13 -30,0 -38,19 -38,31 0,19 14,30 38,39 38,15 62,30 62,62 0,29 -28,50 -60,50 -33,0 -55,-19 -59,-23 -2,-2 -5,-4 -2,-9z"/>
  <path class="fil0" d="M2255 15l-48 0c-3,0 -5,-3 -5,-5l0 -8c0,-3 2,-5 5,-5l118 0c3,0 5,3 5,5l0 8c0,3 -2,5 -5,5l-48 0 0 171c0,3 -3,5 -5,5l-11 0c-3,0 -5,-3 -5,-5l0 -171z"/>
  <path class="fil0" d="M2488 125c-14,-30 -27,-61 -41,-91l-2 0 -41 91 84 0zm-39 -131l-5 0c-2,0 -3,2 -4,3l-85 187c-2,4 1,7 5,7l11 0c3,0 4,-2 5,-3l20 -46 99 0 21 46c1,1 2,3 5,3l11 0c4,0 6,-4 5,-7l-84 -187c-1,-1 -2,-3 -4,-3z"/>
  <path class="fil0" d="M2618 15l-48 0c-3,0 -5,-3 -5,-5l0 -8c0,-3 2,-5 5,-5l118 0c3,0 5,3 5,5l0 8c0,3 -2,5 -5,5l-48 0 0 171c0,3 -3,5 -5,5l-11 0c-3,0 -5,-3 -5,-5l0 -171z"/>
  <path class="fil0" d="M2756 2c0,-3 2,-5 5,-5l110 0c3,0 5,3 5,5l0 8c0,3 -2,5 -5,5l-94 0 0 68 80 0c3,0 5,3 5,5l0 8c0,3 -3,5 -5,5l-80 0 0 71 94 0c3,0 5,3 5,5l0 8c0,3 -2,5 -5,5l-110 0c-3,0 -5,-3 -5,-5l0 -184z"/>
  <path class="fil0" d="M3047 2c0,-3 3,-5 5,-5l11 0c3,0 5,3 5,5l0 116c0,32 20,57 52,57 33,0 53,-24 53,-56l0 -117c0,-3 2,-5 5,-5l11 0c3,0 5,3 5,5l0 118c0,42 -30,75 -74,75 -44,0 -74,-32 -74,-75l0 -118z"/>
  <path class="fil0" d="M3266 -1c0,-3 2,-5 4,-5l8 0 126 156c0,0 0,0 1,0l0 -148c0,-3 2,-5 5,-5l10 0c3,0 5,3 5,5l0 187c0,3 -2,5 -5,5l0 0 -5 0 -128 -160 0 0 0 151c0,3 -2,5 -5,5l-10 0c-3,0 -5,-3 -5,-5l0 -187z"/>
  <path class="fil0" d="M3515 2c0,-3 3,-5 5,-5l11 0c3,0 5,3 5,5l0 184c0,3 -3,5 -5,5l-11 0c-3,0 -5,-3 -5,-5l0 -184z"/>
  <path class="fil0" d="M3600 4c-2,-4 1,-7 5,-7l11 0c3,0 4,2 5,3l69 156 1 0 69 -156c1,-1 3,-3 5,-3l11 0c4,0 6,4 5,7l-85 187c-1,2 -3,3 -5,3l-3 0c-2,0 -4,-1 -5,-3l-84 -187z"/>
  <path class="fil0" d="M3839 2c0,-3 2,-5 5,-5l110 0c3,0 5,3 5,5l0 8c0,3 -2,5 -5,5l-94 0 0 68 80 0c3,0 5,3 5,5l0 8c0,3 -3,5 -5,5l-80 0 0 71 94 0c3,0 5,3 5,5l0 8c0,3 -2,5 -5,5l-110 0c-3,0 -5,-3 -5,-5l0 -184z"/>
  <path class="fil0" d="M4108 97c21,0 40,-18 40,-41 0,-21 -19,-39 -40,-39l-54 0 0 80 54 0zm-76 -95c0,-3 2,-5 5,-5l72 0c33,0 61,26 61,59 0,26 -17,47 -41,57l38 71c2,4 0,8 -5,8l-14 0c-3,0 -4,-1 -4,-3l-37 -74 -53 0 0 71c0,3 -3,5 -5,5l-11 0c-3,0 -5,-3 -5,-5l0 -184z"/>
  <path class="fil0" d="M4231 162c1,-2 3,-4 4,-5 3,-4 6,-6 10,-3 2,2 22,21 47,21 23,0 37,-14 37,-31 0,-19 -17,-31 -49,-44 -31,-13 -49,-26 -49,-58 0,-18 14,-48 56,-50l6 0c26,1 44,14 44,14 2,1 5,4 2,9 -1,2 -2,4 -3,5 -3,4 -5,5 -10,3 -2,-1 -20,-13 -36,-13 -30,0 -38,19 -38,31 0,19 14,30 38,39 38,15 62,30 62,62 0,29 -28,50 -60,50 -33,0 -55,-19 -59,-23 -2,-2 -5,-4 -2,-9z"/>
  <path class="fil0" d="M4420 2c0,-3 3,-5 5,-5l11 0c3,0 5,3 5,5l0 184c0,3 -3,5 -5,5l-11 0c-3,0 -5,-3 -5,-5l0 -184z"/>
  <path class="fil0" d="M4560 15l-48 0c-3,0 -5,-3 -5,-5l0 -8c0,-3 2,-5 5,-5l118 0c3,0 5,3 5,5l0 8c0,3 -2,5 -5,5l-48 0 0 171c0,3 -3,5 -5,5l-11 0c-3,0 -5,-3 -5,-5l0 -171z"/>
  <path class="fil0" d="M4753 98l-67 -93c-2,-4 0,-8 4,-8l13 0c2,0 4,1 4,3l56 78 56 -78c1,-1 2,-3 4,-3l13 0c4,0 7,4 4,8l-68 93 0 89c0,3 -3,5 -5,5l-11 0c-3,0 -5,-3 -5,-5l0 -89z"/>
  <path class="fil0" d="M4996 2c0,-3 2,-5 5,-5l26 0c3,0 5,3 5,5l0 156 71 0c3,0 5,3 5,5l0 23c0,3 -2,5 -5,5l-102 0c-3,0 -5,-3 -5,-5l0 -184z"/>
  <path class="fil0" d="M5254 158c35,0 64,-29 64,-64 0,-35 -29,-64 -64,-64 -35,0 -64,29 -64,64 0,35 29,64 64,64zm3 -164l-7 0c-54,2 -97,46 -97,100 0,56 44,100 100,100 56,0 100,-44 100,-100 0,-55 -43,-99 -97,-100z"/>
  <path class="fil0" d="M5413 -1c0,-3 2,-5 4,-5l8 0 116 123 0 0 0 -115c0,-3 2,-5 5,-5l26 0c3,0 5,3 5,5l0 187c0,3 -2,5 -5,5l0 0 -7 0 -116 -128 0 0 0 120c0,3 -2,5 -5,5l-25 0c-3,0 -5,-3 -5,-5l0 -187z"/>
  <path class="fil0" d="M5740 -6c24,1 46,10 64,26 2,2 3,6 0,8l-17 18c-2,2 -5,2 -7,0 -12,-11 -27,-16 -42,-16 -35,0 -62,30 -62,65 0,35 28,64 63,64 16,0 28,-5 33,-7l0 -24 -22 0c-3,0 -5,-2 -5,-5l0 -22c0,-3 2,-5 5,-5l53 0c3,0 5,3 5,5l0 71c0,2 -1,4 -2,4 0,0 -29,18 -69,18 -55,0 -100,-44 -100,-100 0,-55 43,-99 97,-100l7 0z"/>
  <path class="fil0" d="M6047 159c14,0 25,-11 25,-25 0,-14 -14,-24 -28,-24l-30 0 0 50 34 0zm-4 -80c14,0 24,-11 24,-25 0,-14 -10,-24 -24,-24l-30 0 0 49 30 0zm-66 -77c0,-3 2,-5 5,-5l64 0c33,0 59,22 59,52 0,21 -18,38 -31,44 15,5 36,20 36,45 0,31 -27,54 -61,54l-67 0c-3,0 -5,-3 -5,-5l0 -184z"/>
  <path class="fil0" d="M6166 2c0,-3 2,-5 5,-5l113 0c3,0 5,3 5,5l0 23c0,3 -2,5 -5,5l-82 0 0 46 69 0c3,0 5,3 5,5l0 23c0,3 -3,5 -5,5l-69 0 0 49 82 0c3,0 5,3 5,5l0 23c0,3 -2,5 -5,5l-113 0c-3,0 -5,-3 -5,-5l0 -184z"/>
  <path class="fil0" d="M6463 125l-28 -61 -1 0 -27 61 56 0zm-25 -131l-5 0c-2,0 -3,2 -4,3l-87 187c-2,4 1,7 5,7l24 0c4,0 7,-3 8,-6l14 -30 83 0 14 30c2,4 4,6 8,6l24 0c4,0 6,-4 5,-7l-86 -187c-1,-1 -2,-3 -4,-3z"/>
  <path class="fil0" d="M6659 -6c26,1 45,10 63,26 3,2 3,6 0,8l-17 18c-2,2 -5,2 -7,0 -12,-10 -27,-16 -43,-16 -36,0 -62,30 -62,65 0,35 27,64 62,64 17,0 31,-6 43,-16 2,-2 5,-2 7,0l17 18c2,2 2,6 0,8 -19,18 -43,27 -68,27 -56,0 -101,-44 -101,-100 0,-55 43,-99 97,-100l7 0z"/>
  <path class="fil0" d="M6781 2c0,-3 3,-5 5,-5l26 0c3,0 5,3 5,5l0 74 91 0 0 -74c0,-3 2,-5 5,-5l26 0c3,0 5,3 5,5l0 184c0,3 -3,5 -5,5l-26 0c-3,0 -5,-3 -5,-5l0 -77 -91 0 0 77c0,3 -2,5 -5,5l-26 0c-3,0 -5,-3 -5,-5l0 -184z"/>
 </g>
</svg>
